<svg width="18" height="18" viewBox="0 0 18 18" fill="none" xmlns="http://www.w3.org/2000/svg">
<path d="M10.3822 11.9025C10.8357 12.1928 11.3588 12.3558 11.8969 12.3743C12.435 12.3928 12.9681 12.2662 13.4404 12.0077C13.9127 11.7492 14.3067 11.3683 14.5811 10.9051C14.8555 10.4419 15.0002 9.91339 15 9.375C15 8.4465 14.5328 7.023 13.815 5.8515C13.1348 4.7415 12.393 4.125 12 4.125C11.607 4.125 10.8652 4.7415 10.185 5.8515C9.91106 6.30146 9.67644 6.77421 9.48375 7.2645C9.21345 6.72922 8.89275 6.22093 8.526 5.7465C9.3915 4.0575 10.695 2.625 12 2.625C14.25 2.625 16.5 6.8895 16.5 9.375C16.5002 10.1608 16.2946 10.933 15.9036 11.6147C15.5127 12.2964 14.9501 12.8638 14.2717 13.2605C13.5934 13.6572 12.823 13.8694 12.0372 13.8759C11.2514 13.8823 10.4776 13.6829 9.79275 13.2975C10.0628 12.8752 10.2653 12.405 10.3822 11.9025ZM6 15.375C4.80653 15.375 3.66193 14.9009 2.81802 14.057C1.97411 13.2131 1.5 12.0685 1.5 10.875C1.5 8.3895 3.75 4.125 6 4.125C8.25 4.125 10.5 8.3895 10.5 10.875C10.5 12.0685 10.0259 13.2131 9.18198 14.057C8.33807 14.9009 7.19347 15.375 6 15.375ZM6 13.875C6.79565 13.875 7.55871 13.5589 8.12132 12.9963C8.68393 12.4337 9 11.6706 9 10.875C9 9.9465 8.53275 8.523 7.815 7.3515C7.13475 6.2415 6.393 5.625 6 5.625C5.607 5.625 4.86525 6.2415 4.185 7.3515C3.46725 8.523 3 9.9465 3 10.875C3 11.6706 3.31607 12.4337 3.87868 12.9963C4.44129 13.5589 5.20435 13.875 6 13.875Z" fill="#BEBEBE"/>
</svg>
