<svg width="15" height="14" viewBox="0 0 15 14" fill="none" xmlns="http://www.w3.org/2000/svg">
<path d="M1.32694 6.533L5.51094 5.01L7.03294 0.827002C7.06784 0.731177 7.13136 0.648407 7.21491 0.58992C7.29845 0.531433 7.39796 0.500061 7.49994 0.500061C7.60192 0.500061 7.70143 0.531433 7.78498 0.58992C7.86852 0.648407 7.93205 0.731177 7.96694 0.827002L9.48994 5.011L13.6739 6.533C13.7698 6.5679 13.8525 6.63143 13.911 6.71497C13.9695 6.79851 14.0009 6.89802 14.0009 7C14.0009 7.10198 13.9695 7.20149 13.911 7.28504C13.8525 7.36858 13.7698 7.43211 13.6739 7.467L9.48894 8.99L7.96694 13.174C7.93205 13.2698 7.86852 13.3526 7.78498 13.4111C7.70143 13.4696 7.60192 13.5009 7.49994 13.5009C7.39796 13.5009 7.29845 13.4696 7.21491 13.4111C7.13136 13.3526 7.06784 13.2698 7.03294 13.174L5.50994 8.989L1.32694 7.467C1.23112 7.43211 1.14835 7.36858 1.08986 7.28504C1.03137 7.20149 1 7.10198 1 7C1 6.89802 1.03137 6.79851 1.08986 6.71497C1.14835 6.63143 1.23112 6.5679 1.32694 6.533Z" fill="white" stroke="white" stroke-linecap="round" stroke-linejoin="round"/>
</svg>
