<svg width="18" height="18" viewBox="0 0 18 18" fill="none" xmlns="http://www.w3.org/2000/svg">
<path d="M15.7116 2.81741C15.7036 2.6798 15.6453 2.54993 15.5478 2.45246C15.4504 2.35499 15.3205 2.2967 15.1829 2.28866C9.83 1.97437 5.54234 3.58593 3.71422 6.60936C3.08058 7.64362 2.76832 8.84273 2.81703 10.0547C2.85711 11.1741 3.18336 12.3047 3.78664 13.4191L2.41484 14.7902C2.3093 14.8958 2.25 15.0389 2.25 15.1882C2.25 15.3375 2.3093 15.4806 2.41484 15.5862C2.52039 15.6917 2.66355 15.751 2.81281 15.751C2.96208 15.751 3.10523 15.6917 3.21078 15.5862L4.58188 14.2144C5.69563 14.8169 6.82695 15.1432 7.94563 15.1833C8.02391 15.1861 8.10195 15.1875 8.17977 15.1875C9.31302 15.1905 10.4248 14.8784 11.3909 14.2861C14.4144 12.458 16.0266 8.17101 15.7116 2.81741ZM10.8109 13.3242C9.21125 14.2931 7.31774 14.3086 5.41719 13.3783L11.649 7.14726C11.7012 7.09499 11.7427 7.03295 11.771 6.96467C11.7993 6.89638 11.8138 6.8232 11.8138 6.74929C11.8138 6.67538 11.7993 6.60219 11.771 6.53391C11.7427 6.46562 11.7012 6.40358 11.649 6.35132C11.5967 6.29906 11.5347 6.2576 11.4664 6.22932C11.3981 6.20103 11.3249 6.18647 11.251 6.18647C11.1771 6.18647 11.1039 6.20103 11.0356 6.22932C10.9674 6.2576 10.9053 6.29906 10.853 6.35132L4.62195 12.5859C3.69453 10.6875 3.70789 8.78905 4.67609 7.19226C6.2293 4.62796 9.92141 3.22382 14.612 3.39116C14.78 8.07819 13.3752 11.771 10.8109 13.3242Z" fill="#40A82F"/>
</svg>
